<?xml version="1.0" encoding="UTF-8"?>
<svg xmlns="http://www.w3.org/2000/svg" viewBox="0 0 32 32">
  <!-- Background -->
  <rect width="32" height="32" fill="#4a4a5e" />
  
  <!-- Base of castle -->
  <rect x="6" y="22" width="20" height="8" fill="#707070" />
  
  <!-- Castle walls/tower -->
  <rect x="8" y="12" width="16" height="10" fill="#8a8a9a" />
  
  <!-- Main tower -->
  <rect x="11" y="5" width="10" height="7" fill="#9a9aaa" />
  
  <!-- Tower details -->
  <rect x="13" y="2" width="6" height="3" fill="#ababc0" />
  
  <!-- Castle battlements -->
  <rect x="6" y="20" width="2" height="2" fill="#8a8a9a" />
  <rect x="10" y="20" width="2" height="2" fill="#8a8a9a" />
  <rect x="14" y="20" width="2" height="2" fill="#8a8a9a" />
  <rect x="18" y="20" width="2" height="2" fill="#8a8a9a" />
  <rect x="22" y="20" width="2" height="2" fill="#8a8a9a" />
  
  <!-- Tower battlements -->
  <rect x="11" y="3" width="2" height="2" fill="#9a9aaa" />
  <rect x="15" y="3" width="2" height="2" fill="#9a9aaa" />
  <rect x="19" y="3" width="2" height="2" fill="#9a9aaa" />
  
  <!-- Windows -->
  <rect x="11" y="14" width="2" height="3" fill="#f7b955" />
  <rect x="19" y="14" width="2" height="3" fill="#f7b955" />
  <rect x="14" y="8" width="4" height="3" fill="#f7b955" />
  
  <!-- Door -->
  <rect x="14" y="25" width="4" height="5" fill="#614b2a" />
  
  <!-- Magic glow accent -->
  <circle cx="16" cy="16" r="14" fill="none" stroke="#f7b955" stroke-width="0.5" opacity="0.6" />
</svg>